# xmcd CD database file
#
# Track frame offsets:
#	150
#	15875
#	26451
#	39960
#	56124
#	77091
#	92104
#	100748
#	109021
#	125727
#
# Disc length: 1955 seconds
#
# Revision: 0
# Processed by: cddbd v1.5.2PL0 Copyright (c) Steve Scherf et al.
# Submitted via: CDex 1.70beta2
#
DISCID=7007a10a
DTITLE=Louis Prima Jr. - Return Of The Wildest
DYEAR=2012
DGENRE=Jazz
TTITLE0=Oh Babe
TTITLE1=Bei Mir Bist du Schon- Sarah Spiegel
TTITLE2=Night Train
TTITLE3=I Wan'na Be Like You
TTITLE4=A Sunday Kind Of Love- Sarah Spiegel
TTITLE5=Las Vegas Woman
TTITLE6=I Want You To Be My Baby- Sarah Spiegel
TTITLE7=You Brought A New Kind Of Love To Me- Sarah Spiegel
TTITLE8=Jump, Jive, An' Wail
TTITLE9=Just A Gigolo (I Ain't Go Nobody)
EXTD=YEAR: 2012
EXTT0=
EXTT1=
EXTT2=
EXTT3=
EXTT4=
EXTT5=
EXTT6=
EXTT7=
EXTT8=
EXTT9=
PLAYORDER=
